<svg xmlns="http://www.w3.org/2000/svg" width="9.175" height="9.174" viewBox="0 0 9.175 9.174">
  <g id="arrow-down-short" transform="translate(-10.124 -10.125)">
    <path id="Path_3" data-name="Path 3" d="M10.316,17.065a.655.655,0,0,1,.928,0l3.467,3.469,3.468-3.469a.656.656,0,1,1,.928.928l-3.931,3.931a.655.655,0,0,1-.928,0l-3.931-3.931a.655.655,0,0,1,0-.928Z" transform="translate(0 -2.818)" fill="#f0542d" fill-rule="evenodd"/>
    <path id="Path_4" data-name="Path 4" d="M17.53,10.125a.655.655,0,0,1,.655.655v6.552a.655.655,0,0,1-1.31,0V10.78A.655.655,0,0,1,17.53,10.125Z" transform="translate(-2.819)" fill="#f0542d" fill-rule="evenodd"/>
  </g>
</svg>
