<svg id="chat-dots" xmlns="http://www.w3.org/2000/svg" width="24.014" height="22.41" viewBox="0 0 24.014 22.41">
  <path id="Path_323" data-name="Path 323" d="M4.02,18.6a1.5,1.5,0,0,1,.431,1.2,16.465,16.465,0,0,1-.6,3,17.717,17.717,0,0,0,3.953-1.34,1.5,1.5,0,0,1,1.065-.111,12.1,12.1,0,0,0,3.136.408c6,0,10.506-4.213,10.506-9.005S18,3.751,12.007,3.751,1.5,7.965,1.5,12.756A8.246,8.246,0,0,0,4.02,18.6Zm-.74,5.861q-.533.106-1.07.193a.39.39,0,0,1-.41-.544q.2-.471.366-.956l0-.015a15.7,15.7,0,0,0,.786-3.481A9.747,9.747,0,0,1,0,12.756C0,6.953,5.376,2.25,12.007,2.25s12.007,4.7,12.007,10.506S18.638,23.262,12.007,23.262a13.6,13.6,0,0,1-3.523-.46,20.52,20.52,0,0,1-5.205,1.658Z" transform="translate(0 -2.25)" fill="#fff" fill-rule="evenodd"/>
  <path id="Path_324" data-name="Path 324" d="M9.752,17.251a1.5,1.5,0,1,1-1.5-1.5A1.5,1.5,0,0,1,9.752,17.251Zm6,0a1.5,1.5,0,1,1-1.5-1.5A1.5,1.5,0,0,1,15.755,17.251Zm6,0a1.5,1.5,0,1,1-1.5-1.5A1.5,1.5,0,0,1,21.759,17.251Z" transform="translate(-2.247 -6.745)" fill="#fff"/>
</svg>
