<svg id="search" xmlns="http://www.w3.org/2000/svg" width="21.001" height="21" viewBox="0 0 21.001 21">
  <path id="Path_1" data-name="Path 1" d="M23.221,23.22a1.313,1.313,0,0,1,1.857,0l5.053,5.053a1.313,1.313,0,1,1-1.856,1.857l-5.053-5.053a1.313,1.313,0,0,1,0-1.857Z" transform="translate(-9.516 -9.514)" fill="#747474" fill-rule="evenodd"/>
  <path id="Path_2" data-name="Path 2" d="M8.531,15.75A7.219,7.219,0,1,0,1.313,8.531,7.219,7.219,0,0,0,8.531,15.75Zm8.531-7.219A8.531,8.531,0,1,1,8.531,0,8.531,8.531,0,0,1,17.063,8.531Z" fill="#747474" fill-rule="evenodd"/>
</svg>
